<svg xmlns="http://www.w3.org/2000/svg" viewBox="0 0 64 64" role="img" aria-label="Saas Boiler">
  <defs>
    <linearGradient id="mark" x1="10" x2="54" y1="8" y2="56" gradientUnits="userSpaceOnUse">
      <stop stop-color="#1463ff"/>
      <stop offset="1" stop-color="#0fb981"/>
    </linearGradient>
  </defs>
  <rect width="64" height="64" rx="14" fill="url(#mark)"/>
  <path fill="#fff" d="M23 39.5c2 1.4 5 2.3 8.2 2.3 3.7 0 5.6-1.1 5.6-2.9 0-1.7-1.5-2.4-6.1-3.2-7.2-1.2-10.5-3.7-10.5-8.2 0-5.3 4.5-8.6 11.7-8.6 3.7 0 7.1.8 9.5 2.2l-2.1 5.6c-1.9-1.1-4.5-1.8-7.2-1.8-3.1 0-4.6.9-4.6 2.5 0 1.5 1.3 2.2 5.9 3 7.4 1.3 10.8 3.8 10.8 8.5 0 5.6-4.6 8.9-12.8 8.9-4.4 0-8.3-1-10.8-2.7l2.4-5.6Z"/>
</svg>
